<?xml version="1.0" encoding="UTF-8"?>
<!DOCTYPE svg PUBLIC "-//W3C//DTD SVG 1.1//EN" "http://www.w3.org/Graphics/SVG/1.1/DTD/svg11.dtd">
<svg xmlns="http://www.w3.org/2000/svg" version="1.1" width="800px" height="800px" style="shape-rendering:geometricPrecision; text-rendering:geometricPrecision; image-rendering:optimizeQuality; fill-rule:evenodd; clip-rule:evenodd" xmlns:xlink="http://www.w3.org/1999/xlink">
<g><path style="opacity:0.986" fill="#fefefe" d="M 63.5,-0.5 C 287.5,-0.5 511.5,-0.5 735.5,-0.5C 765.164,2.76815 785.331,18.4348 796,46.5C 797.386,52.2647 798.552,57.9314 799.5,63.5C 799.5,287.5 799.5,511.5 799.5,735.5C 796.232,765.164 780.565,785.331 752.5,796C 746.735,797.386 741.069,798.552 735.5,799.5C 511.5,799.5 287.5,799.5 63.5,799.5C 33.8361,796.232 13.6694,780.565 3,752.5C 1.6145,746.735 0.447831,741.069 -0.5,735.5C -0.5,511.5 -0.5,287.5 -0.5,63.5C 2.76815,33.8361 18.4348,13.6694 46.5,3C 52.2647,1.6145 57.9314,0.447831 63.5,-0.5 Z M 67.5,166.5 C 288.833,166.5 510.167,166.5 731.5,166.5C 731.5,354.833 731.5,543.167 731.5,731.5C 510.167,731.5 288.833,731.5 67.5,731.5C 67.5,543.167 67.5,354.833 67.5,166.5 Z"/></g>
<g><path style="opacity:0.985" fill="#fefefe" d="M 120.5,266.5 C 201.167,301.833 281.833,337.167 362.5,372.5C 362.833,390.179 362.5,407.846 361.5,425.5C 281.252,461.126 200.918,496.46 120.5,531.5C 120.167,508.157 120.5,484.824 121.5,461.5C 173.833,440.667 226.167,419.833 278.5,399C 226.127,378.265 173.794,357.431 121.5,336.5C 120.5,313.176 120.167,289.843 120.5,266.5 Z"/></g>
<g><path style="opacity:0.986" fill="#fefefe" d="M 392.5,536.5 C 487.833,536.5 583.167,536.5 678.5,536.5C 678.5,557.5 678.5,578.5 678.5,599.5C 583.167,599.5 487.833,599.5 392.5,599.5C 392.5,578.5 392.5,557.5 392.5,536.5 Z"/></g>
</svg>
