<?xml version="1.0" encoding="UTF-8"?>
<!DOCTYPE svg PUBLIC "-//W3C//DTD SVG 1.1//EN" "http://www.w3.org/Graphics/SVG/1.1/DTD/svg11.dtd">
<svg xmlns="http://www.w3.org/2000/svg" version="1.1" width="800px" height="800px" style="shape-rendering:geometricPrecision; text-rendering:geometricPrecision; image-rendering:optimizeQuality; fill-rule:evenodd; clip-rule:evenodd" xmlns:xlink="http://www.w3.org/1999/xlink">
<g><path style="opacity:0.951" fill="#fefefe" d="M 799.5,698.5 C 799.5,701.167 799.5,703.833 799.5,706.5C 798.379,708.954 797.546,711.621 797,714.5C 791.481,717.451 785.648,719.618 779.5,721C 769.18,723.093 758.847,725.093 748.5,727C 741.851,728.74 736.017,731.907 731,736.5C 723.06,732.046 714.56,730.546 705.5,732C 689.239,736.967 672.905,741.633 656.5,746C 649.167,746.333 641.833,746.667 634.5,747C 535.9,761.893 438.567,755.893 342.5,729C 275.866,706.664 218.366,670.164 170,619.5C 119.497,560.549 80.1639,494.549 52,421.5C 47.2631,407.956 42.9297,394.289 39,380.5C 31.9787,351.748 24.6454,323.081 17,294.5C 11.3747,279.608 5.54141,264.941 -0.5,250.5C -0.5,247.5 -0.5,244.5 -0.5,241.5C 5.18993,217.633 19.8566,201.8 43.5,194C 30.8825,191.473 28.0492,184.64 35,173.5C 36.8333,171.667 38.6667,169.833 40.5,168C 47.9897,165.166 55.6564,162.833 63.5,161C 74.352,154.793 78.1853,145.627 75,133.5C 71.6403,130.125 69.9736,126.125 70,121.5C 71.7932,118.705 73.9598,116.205 76.5,114C 81.772,111.059 86.772,107.726 91.5,104C 98.4205,99.3565 100.587,93.1898 98,85.5C 94.7008,82.0216 91.0341,79.0216 87,76.5C 80.2808,68.625 78.9474,59.9583 83,50.5C 86.0157,46.9083 89.849,44.7416 94.5,44C 103.333,42.4741 111.666,43.8075 119.5,48C 125.212,53.6694 127.045,60.5028 125,68.5C 117.458,84.9696 122.791,92.9696 141,92.5C 148.474,91.4181 155.974,91.2514 163.5,92C 168.005,92.3272 171.172,94.4939 173,98.5C 173.263,103.851 173.263,109.184 173,114.5C 176.297,117.567 180.131,119.733 184.5,121C 194.113,122.991 203.78,124.658 213.5,126C 224.428,127.93 231.095,134.263 233.5,145C 237.535,145.874 241.535,146.874 245.5,148C 256.167,154.333 266.833,160.667 277.5,167C 302.092,172.083 325.092,181.083 346.5,194C 354.723,199.552 360.723,206.886 364.5,216C 360.84,219.173 356.507,220.673 351.5,220.5C 346.755,220.118 342.088,219.284 337.5,218C 327.49,214.66 317.49,211.327 307.5,208C 295.108,204.767 287.608,209.267 285,221.5C 286.291,269.622 289.625,317.622 295,365.5C 301.438,435.219 327.105,496.552 372,549.5C 419.58,609.565 480.414,650.065 554.5,671C 569.674,674.834 584.841,678.668 600,682.5C 602.39,681.722 604.557,680.555 606.5,679C 616.221,667.946 626.554,657.613 637.5,648C 644.405,643.025 652.072,641.358 660.5,643C 663.173,644.001 665.507,645.501 667.5,647.5C 664.29,657.578 658.79,666.245 651,673.5C 648.51,676.465 647.176,679.798 647,683.5C 650.075,685.27 653.408,686.27 657,686.5C 665.105,684.838 673.271,684.338 681.5,685C 691.056,687.972 700.723,690.472 710.5,692.5C 717.871,690.647 724.204,686.98 729.5,681.5C 735.074,687.195 741.907,689.861 750,689.5C 762.477,688.382 774.977,688.215 787.5,689C 792.928,690.526 796.928,693.693 799.5,698.5 Z M 98.5,47.5 C 107.861,46.045 113.527,49.8784 115.5,59C 115.167,59.8333 114.833,60.6667 114.5,61.5C 107.207,62.1282 99.8736,62.2949 92.5,62C 90.9007,63.7863 90.0674,65.953 90,68.5C 86.8875,58.9897 89.7208,51.9897 98.5,47.5 Z M 138.5,100.5 C 141.582,101.017 144.582,101.85 147.5,103C 143.265,105.891 138.598,106.891 133.5,106C 132.549,105.282 132.383,104.449 133,103.5C 134.719,102.131 136.552,101.131 138.5,100.5 Z M 138.5,121.5 C 148.394,124.299 158.061,127.799 167.5,132C 174.282,137.98 173.282,139.147 164.5,135.5C 164.957,140.201 165.624,144.868 166.5,149.5C 154.58,151.287 146.08,146.62 141,135.5C 139.208,131 138.375,126.333 138.5,121.5 Z M 122.5,139.5 C 127.267,139.191 131.934,139.691 136.5,141C 138.213,142.378 139.547,144.045 140.5,146C 133.982,146.092 127.482,145.592 121,144.5C 114.762,145.701 108.595,146.868 102.5,148C 109.151,144.833 115.817,142 122.5,139.5 Z M 202.5,171.5 C 197.651,169.164 193.484,165.831 190,161.5C 190.949,167.509 190.616,173.509 189,179.5C 185.93,183.707 182.097,184.54 177.5,182C 173.555,178.054 170.389,173.554 168,168.5C 166.38,166.274 164.214,164.94 161.5,164.5C 159.575,164.59 158.408,165.59 158,167.5C 158,170.167 158,172.833 158,175.5C 147.01,168.753 135.177,166.919 122.5,170C 111.813,172.505 101.146,175.005 90.5,177.5C 93.4374,175.344 96.7708,173.844 100.5,173C 127.341,166.632 154.008,159.632 180.5,152C 185.333,151.125 190.166,150.292 195,149.5C 196.621,149.725 197.788,150.558 198.5,152C 197.777,154.553 196.444,156.72 194.5,158.5C 197.941,162.388 200.608,166.721 202.5,171.5 Z M 258.5,174.5 C 270.779,174.144 282.946,174.81 295,176.5C 298.272,182.806 298.272,189.139 295,195.5C 290.308,201.531 284.475,206.031 277.5,209C 240.667,222.361 202.667,229.694 163.5,231C 148.043,236.396 133.376,243.396 119.5,252C 113.385,254.612 107.052,256.445 100.5,257.5C 100.619,254.742 100.285,251.908 99.5,249C 91.1772,249.592 82.8438,250.426 74.5,251.5C 76.2983,260.791 72.6316,264.624 63.5,263C 53.6436,260.474 46.9769,254.474 43.5,245C 43.7029,242.594 44.7029,240.594 46.5,239C 49.2179,237.928 51.8845,236.762 54.5,235.5C 42.7619,229.285 34.2619,232.285 29,244.5C 28.1779,246.788 27.5112,249.122 27,251.5C 26.6667,258.167 26.3333,264.833 26,271.5C 16.2999,262.057 13.9665,251.057 19,238.5C 23.6715,233.498 29.1715,229.665 35.5,227C 44.3141,223.878 53.3141,221.878 62.5,221C 61.5699,233.105 67.2366,240.438 79.5,243C 85.0642,244.01 90.3975,243.343 95.5,241C 96.0219,240.439 96.3552,239.772 96.5,239C 93.6451,235.555 90.3117,232.555 86.5,230C 88.3211,228.257 90.3211,226.757 92.5,225.5C 88.4927,222.761 84.4927,219.927 80.5,217C 81.5,216 82.5,215 83.5,214C 99.9208,210.849 116.254,207.182 132.5,203C 155.992,195.725 179.659,189.058 203.5,183C 221.79,178.926 240.123,176.093 258.5,174.5 Z M 49.5,191.5 C 53.1035,189.36 56.7701,187.193 60.5,185C 63.406,183.682 66.406,183.348 69.5,184C 63.2403,187.587 56.5736,190.087 49.5,191.5 Z M 338.5,198.5 C 344.726,198.53 349.893,200.864 354,205.5C 355.632,207.96 355.632,210.293 354,212.5C 349.592,208.257 344.759,204.591 339.5,201.5C 338.614,200.675 338.281,199.675 338.5,198.5 Z M 157.5,433.5 C 152.324,434.502 147.991,437.002 144.5,441C 140.984,440.851 138.484,439.017 137,435.5C 135.213,426.999 132.213,418.999 128,411.5C 124.057,407.779 119.557,404.945 114.5,403C 118.749,399.623 119.582,395.457 117,390.5C 112.565,385.226 107.398,380.893 101.5,377.5C 104.926,371.905 108.926,366.738 113.5,362C 117.714,359.731 121.547,360.231 125,363.5C 126.833,366.5 128.667,369.5 130.5,372.5C 123.338,376.091 121.171,381.758 124,389.5C 125.378,394.208 128.212,397.708 132.5,400C 136.046,400.793 137.88,399.293 138,395.5C 139.234,384.928 138.234,374.595 135,364.5C 128.565,353.139 119.065,348.972 106.5,352C 99.5895,347.047 97.5895,340.714 100.5,333C 102.235,332.349 103.902,332.515 105.5,333.5C 106.167,324.669 110.833,319.502 119.5,318C 124.23,317.491 128.897,316.658 133.5,315.5C 135.192,313.641 136.692,311.641 138,309.5C 138.667,306.833 138.667,304.167 138,301.5C 135.333,296.167 132.667,290.833 130,285.5C 128.393,280.16 129.726,275.827 134,272.5C 147.636,276.238 159.636,273.238 170,263.5C 171.83,260.943 171.663,258.443 169.5,256C 176.246,255.879 182.913,255.212 189.5,254C 190.416,253.626 191.25,253.126 192,252.5C 192.782,249.784 194.116,247.45 196,245.5C 204.331,248.208 212.831,250.208 221.5,251.5C 222.932,251.267 223.432,250.6 223,249.5C 220.06,246.033 216.56,243.366 212.5,241.5C 225.416,235.355 239.082,232.189 253.5,232C 257.286,230.607 260.952,228.941 264.5,227C 267.792,226.064 270.792,226.564 273.5,228.5C 277.606,235.763 279.272,243.597 278.5,252C 278.591,264.202 276.591,276.036 272.5,287.5C 274.341,288.23 276.175,288.897 278,289.5C 279.408,293.057 280.408,296.724 281,300.5C 281.776,313.215 281.276,325.881 279.5,338.5C 279.833,340.167 280.167,341.833 280.5,343.5C 282.784,342.584 283.951,343.584 284,346.5C 285.3,355.699 284.134,364.532 280.5,373C 290.448,373.989 292.115,378.489 285.5,386.5C 283.608,383.956 281.775,383.956 280,386.5C 276.685,393.197 275.518,400.197 276.5,407.5C 278.921,403.66 281.088,399.66 283,395.5C 284.601,393.028 286.601,392.028 289,392.5C 294.925,416.941 301.258,441.274 308,465.5C 309.208,470.804 311.375,475.637 314.5,480C 309.176,483.961 305.51,488.961 303.5,495C 316.766,498.273 324.599,506.773 327,520.5C 328.081,516.908 329.081,513.241 330,509.5C 334,516.167 339.333,521.5 346,525.5C 358.155,548.806 373.488,569.806 392,588.5C 392.624,590.464 392.124,592.131 390.5,593.5C 402.507,615.665 420.507,630.832 444.5,639C 454.968,642.951 465.635,646.284 476.5,649C 486.309,664.145 499.976,673.812 517.5,678C 523.22,678.788 528.886,678.621 534.5,677.5C 534.88,679.021 535.046,680.687 535,682.5C 537.234,684.7 539.734,686.533 542.5,688C 552.752,690.986 563.086,693.653 573.5,696C 575.996,697.08 578.33,698.414 580.5,700C 573.888,704.758 566.554,706.425 558.5,705C 547.443,700.982 536.11,697.982 524.5,696C 514.418,691.861 504.418,687.528 494.5,683C 482.555,677.841 470.222,676.508 457.5,679C 452.01,681.816 446.51,684.65 441,687.5C 440.5,687.333 440,687.167 439.5,687C 442.5,683.333 445.5,679.667 448.5,676C 446.365,675.365 444.365,675.699 442.5,677C 438.797,680.367 435.464,684.034 432.5,688C 427.21,691.722 422.71,690.888 419,685.5C 416.552,681.385 413.719,677.552 410.5,674C 405.937,671.965 401.437,672.131 397,674.5C 392.524,672.93 388.524,670.597 385,667.5C 384.251,666.365 384.417,665.365 385.5,664.5C 386.833,663.5 388.167,662.5 389.5,661.5C 387.138,660.729 384.804,659.895 382.5,659C 385.205,655.758 387.539,652.258 389.5,648.5C 374.389,646.747 359.389,644.247 344.5,641C 336.23,637.911 331.564,632.078 330.5,623.5C 337.163,623.2 343.496,624.367 349.5,627C 345.896,628.334 344.729,630.834 346,634.5C 356.645,641.348 368.145,643.181 380.5,640C 381.451,639.282 381.617,638.449 381,637.5C 359.05,612.102 332.55,592.936 301.5,580C 286.417,573.528 271.417,566.861 256.5,560C 252.802,557.814 249.468,555.147 246.5,552C 249.897,552.013 253.23,552.679 256.5,554C 264.752,557.931 272.752,562.265 280.5,567C 297.559,571.249 302.059,565.416 294,549.5C 290.5,543.333 285.667,538.5 279.5,535C 273.79,535.108 268.456,533.775 263.5,531C 257.46,525.291 251.126,519.957 244.5,515C 252.63,515.074 259.463,512.24 265,506.5C 266.104,500.774 265.104,495.44 262,490.5C 254.694,483.194 247.36,475.86 240,468.5C 239.516,470.913 239.85,473.246 241,475.5C 244.617,481.4 247.117,487.733 248.5,494.5C 248.167,495.167 247.833,495.833 247.5,496.5C 246.186,495.687 245.019,494.687 244,493.5C 242.124,485.246 238.291,478.079 232.5,472C 228.533,469.232 224.2,467.898 219.5,468C 218.707,472.243 217.54,476.41 216,480.5C 213.446,477.64 211.779,474.307 211,470.5C 199.843,475.16 193.343,471.327 191.5,459C 192.81,452.73 191.643,446.896 188,441.5C 184.088,436.917 179.588,433.083 174.5,430C 171.269,427.273 168.603,424.106 166.5,420.5C 166.667,420.167 166.833,419.833 167,419.5C 172.769,423.901 179.269,425.734 186.5,425C 187.931,424.535 189.097,423.701 190,422.5C 190.667,419.833 190.667,417.167 190,414.5C 186.02,407.376 181.186,400.876 175.5,395C 172.697,394.245 170.03,394.578 167.5,396C 164.833,399.333 162.167,402.667 159.5,406C 157.55,407.496 155.55,407.663 153.5,406.5C 152.014,403.706 151.347,400.706 151.5,397.5C 152.386,390.85 153.053,384.183 153.5,377.5C 152.5,377.5 151.5,377.5 150.5,377.5C 150.719,378.675 150.386,379.675 149.5,380.5C 145.014,380.964 142.68,383.464 142.5,388C 144.082,393.741 145.082,399.575 145.5,405.5C 142.449,405.636 139.449,405.302 136.5,404.5C 134.893,404.637 133.559,405.304 132.5,406.5C 133.467,408.63 134.634,410.63 136,412.5C 143.062,419.73 150.229,426.73 157.5,433.5 Z M 137.5,259.5 C 139.973,259.947 140.14,260.947 138,262.5C 136.272,261.648 136.105,260.648 137.5,259.5 Z M 43.5,265.5 C 45.1033,265.312 46.4366,265.812 47.5,267C 45.5221,271.044 43.1888,271.378 40.5,268C 41.5707,267.148 42.5707,266.315 43.5,265.5 Z M 99.5,282.5 C 105.898,282.243 112.231,282.743 118.5,284C 125.019,288.222 124.686,292.222 117.5,296C 111.253,298.837 105.92,297.837 101.5,293C 102,292.5 102.5,292 103,291.5C 106.744,292.626 110.577,292.793 114.5,292C 109.257,288.547 103.591,285.88 97.5,284C 98.4158,283.722 99.0825,283.222 99.5,282.5 Z M 73.5,292.5 C 76.1873,292.336 78.854,292.503 81.5,293C 82.428,293.388 83.0946,294.055 83.5,295C 79.6344,302.146 75.6344,302.313 71.5,295.5C 71.9424,294.261 72.6091,293.261 73.5,292.5 Z M 89.5,302.5 C 91.5,302.5 93.5,302.5 95.5,302.5C 95.5,303.5 95.5,304.5 95.5,305.5C 93.8008,305.66 92.1341,305.494 90.5,305C 89.7476,304.329 89.4142,303.496 89.5,302.5 Z M 38.5,307.5 C 39.0768,306.227 39.7435,306.227 40.5,307.5C 40.0302,308.463 39.3635,308.463 38.5,307.5 Z M 83.5,307.5 C 84.6491,307.791 85.3158,308.624 85.5,310C 85.3333,310.833 85.1667,311.667 85,312.5C 83.6012,311.773 82.1012,311.273 80.5,311C 81.365,309.641 82.365,308.474 83.5,307.5 Z M 71.5,325.5 C 75.263,325.857 78.9296,326.69 82.5,328C 84.3937,329.079 84.727,330.413 83.5,332C 77.5465,333.193 73.5465,331.027 71.5,325.5 Z M 47.5,338.5 C 48.8221,338.33 49.9887,338.663 51,339.5C 52.6647,342.447 53.1647,345.447 52.5,348.5C 47.5795,346.66 45.9128,343.327 47.5,338.5 Z M 72.5,338.5 C 76.594,337.705 79.7607,339.038 82,342.5C 82.7805,343.944 82.6139,345.277 81.5,346.5C 78.4899,345.731 75.4899,344.897 72.5,344C 71.2475,342.172 71.2475,340.339 72.5,338.5 Z M 70.5,351.5 C 73.2515,350.107 75.5848,350.774 77.5,353.5C 77.3333,353.833 77.1667,354.167 77,354.5C 74.7492,353.588 72.5825,352.588 70.5,351.5 Z M 57.5,367.5 C 66.7903,378.423 71.9569,391.09 73,405.5C 69.5994,402.365 66.9327,398.698 65,394.5C 61.7192,385.709 59.2192,376.709 57.5,367.5 Z M 88.5,451.5 C 83.8467,448.006 80.0134,443.673 77,438.5C 69.6667,422.5 62.3333,406.5 55,390.5C 52.3665,384.6 50.3665,378.6 49,372.5C 52,374.167 54.3333,376.5 56,379.5C 59.3895,386.336 62.3895,393.336 65,400.5C 66.944,404.11 69.2774,407.443 72,410.5C 77.4086,424.231 82.9086,437.897 88.5,451.5 Z M 103.5,395.5 C 108.021,395.326 108.355,395.993 104.5,397.5C 103.702,397.043 103.369,396.376 103.5,395.5 Z M 108.5,412.5 C 111.572,412.183 114.572,412.516 117.5,413.5C 114.326,415.969 110.993,416.136 107.5,414C 108.056,413.617 108.389,413.117 108.5,412.5 Z M 152.5,413.5 C 153.649,413.791 154.316,414.624 154.5,416C 153.706,419.122 152.706,419.122 151.5,416C 151.743,415.098 152.077,414.265 152.5,413.5 Z M 169.5,436.5 C 171.223,435.193 173.057,435.193 175,436.5C 176,438.5 177,440.5 178,442.5C 178.988,450.782 180.988,458.782 184,466.5C 191.757,471.272 196.924,478.105 199.5,487C 193.913,486.92 188.58,485.587 183.5,483C 174.343,478.588 165.343,473.922 156.5,469C 152.347,466.921 148.014,465.421 143.5,464.5C 143.662,462.473 143.495,460.473 143,458.5C 139.449,455.1 137.949,451.1 138.5,446.5C 141.81,445.651 145.144,445.818 148.5,447C 156.097,452.202 164.431,454.536 173.5,454C 174.804,453.196 175.471,452.029 175.5,450.5C 174.45,445.327 172.45,440.66 169.5,436.5 Z M 72.5,443.5 C 76.0267,446.204 78.8601,449.538 81,453.5C 86.0475,466.993 92.0475,479.993 99,492.5C 104.626,499.794 110.626,506.794 117,513.5C 121.022,519.543 124.522,525.877 127.5,532.5C 133.146,536.312 137.979,540.979 142,546.5C 146.09,557.779 150.757,568.779 156,579.5C 160.287,583.726 165.454,585.893 171.5,586C 175.792,592.75 179.959,599.583 184,606.5C 188.334,610.501 193.501,612.335 199.5,612C 198.643,612.689 197.977,613.522 197.5,614.5C 198.392,617.284 199.558,619.95 201,622.5C 205.833,626 210,630.167 213.5,635C 227.134,637.296 236.801,644.629 242.5,657C 232.601,658.358 223.934,655.692 216.5,649C 206.383,636.546 194.717,625.879 181.5,617C 162.434,597.905 147.601,576.405 137,552.5C 136.683,554.301 136.016,554.634 135,553.5C 119.273,530.103 103.939,506.436 89,482.5C 82.3785,469.93 76.8785,456.93 72.5,443.5 Z M 137.5,471.5 C 142.1,471.345 142.433,472.012 138.5,473.5C 136.279,473.561 135.946,472.895 137.5,471.5 Z M 137.5,493.5 C 141.565,494.404 144.065,496.737 145,500.5C 143.421,498.959 141.587,497.792 139.5,497C 138.177,496.184 137.511,495.017 137.5,493.5 Z M 230.5,493.5 C 234.758,493.295 237.758,495.128 239.5,499C 235.588,499.249 232.255,497.916 229.5,495C 230.056,494.617 230.389,494.117 230.5,493.5 Z M 187.5,499.5 C 188.449,498.848 189.615,498.514 191,498.5C 200.978,500.381 210.811,502.881 220.5,506C 216.352,508.498 212.185,510.998 208,513.5C 208.367,517.391 210.534,520.058 214.5,521.5C 205.063,521.197 203.73,523.697 210.5,529C 213.679,530.558 216.679,532.391 219.5,534.5C 218.515,536.098 218.349,537.765 219,539.5C 222.333,542.833 225.667,546.167 229,549.5C 229.422,552.236 229.422,554.902 229,557.5C 231.709,560.378 234.542,563.044 237.5,565.5C 236.635,566.583 235.635,566.749 234.5,566C 227.309,562.795 220.642,558.795 214.5,554C 206.833,550.333 199.167,546.667 191.5,543C 188.115,541.301 185.948,538.801 185,535.5C 189.248,538.571 193.748,540.237 198.5,540.5C 197.408,537.906 195.741,535.739 193.5,534C 188.986,530.909 184.653,527.575 180.5,524C 182.256,523.798 183.922,523.298 185.5,522.5C 182.392,517.888 178.725,513.722 174.5,510C 177.475,509.956 180.475,510.123 183.5,510.5C 183.244,508.063 182.577,505.729 181.5,503.5C 181.833,503.167 182.167,502.833 182.5,502.5C 186.265,503.736 189.932,504.903 193.5,506C 191.266,503.937 189.266,501.771 187.5,499.5 Z M 165.5,513.5 C 161.594,512.772 158.26,510.938 155.5,508C 159.805,507.987 163.138,509.821 165.5,513.5 Z M 140.5,521.5 C 141.833,521.5 142.5,522.167 142.5,523.5C 141.5,523.167 140.833,522.5 140.5,521.5 Z M 264.5,553.5 C 265.386,552.224 266.386,552.224 267.5,553.5C 266.575,554.562 265.575,554.562 264.5,553.5 Z M 279.5,559.5 C 281.332,560.14 281.665,561.14 280.5,562.5C 279.614,561.675 279.281,560.675 279.5,559.5 Z M 207.5,569.5 C 211.22,568.225 214.887,568.725 218.5,571C 214.69,571.587 211.023,571.087 207.5,569.5 Z M 248.5,572.5 C 248.56,571.957 248.893,571.624 249.5,571.5C 254.812,572.991 259.812,575.158 264.5,578C 258.129,578.914 252.796,577.081 248.5,572.5 Z M 227.5,575.5 C 230.226,575.264 232.559,576.097 234.5,578C 231.758,578.295 229.425,577.462 227.5,575.5 Z M 213.5,582.5 C 217.846,582.334 222.179,582.501 226.5,583C 236.679,585.754 246.679,589.088 256.5,593C 259.076,593.782 261.076,595.282 262.5,597.5C 261.636,599.197 260.303,600.363 258.5,601C 252.569,602.471 246.569,602.804 240.5,602C 233.843,600.007 227.176,598.007 220.5,596C 215.081,593.423 211.748,589.257 210.5,583.5C 211.791,583.737 212.791,583.404 213.5,582.5 Z M 265.5,587.5 C 271.612,587.034 276.946,589.2 281.5,594C 287.44,596.808 293.44,599.308 299.5,601.5C 299,602.881 298,603.547 296.5,603.5C 283.728,602.616 273.394,597.282 265.5,587.5 Z M 285.5,587.5 C 292.833,585.497 299.5,586.997 305.5,592C 310.114,593.214 314.78,594.214 319.5,595C 320.672,595.419 321.672,596.085 322.5,597C 309.144,597.745 296.811,594.578 285.5,587.5 Z M 408.5,600.5 C 410.121,600.787 411.121,601.787 411.5,603.5C 406.937,605.005 405.937,604.005 408.5,600.5 Z M 290.5,611.5 C 296.125,610.202 301.125,611.702 305.5,616C 299.812,616.824 294.812,615.324 290.5,611.5 Z M 268.5,611.5 C 269.473,611.987 270.473,612.487 271.5,613C 269.843,613.725 268.843,613.225 268.5,611.5 Z M 422.5,617.5 C 424.42,616.06 426.087,616.393 427.5,618.5C 427.333,618.833 427.167,619.167 427,619.5C 425.53,618.733 424.03,618.067 422.5,617.5 Z M 287.5,629.5 C 290.74,628.258 294.074,628.424 297.5,630C 302.001,632.416 306.334,635.083 310.5,638C 301.82,637.997 294.153,635.163 287.5,629.5 Z M 310.5,628.5 C 313.045,628.151 315.045,628.984 316.5,631C 313.797,631.605 311.797,630.772 310.5,628.5 Z M 273.5,632.5 C 276.157,632.162 278.49,632.829 280.5,634.5C 278.926,635.631 277.259,635.798 275.5,635C 274.244,634.583 273.577,633.75 273.5,632.5 Z M 658.5,646.5 C 659.788,648.035 659.788,649.701 658.5,651.5C 657.334,649.833 657.334,648.166 658.5,646.5 Z M 270.5,652.5 C 278.181,652.316 278.348,653.316 271,655.5C 269.833,655.333 268.667,655.167 267.5,655C 268.571,654.148 269.571,653.315 270.5,652.5 Z M 305.5,652.5 C 308.4,652.28 311.067,652.946 313.5,654.5C 311.926,655.631 310.259,655.798 308.5,655C 306.881,654.764 305.881,653.931 305.5,652.5 Z M 323.5,657.5 C 326.187,657.336 328.854,657.503 331.5,658C 333.497,659.153 333.83,660.653 332.5,662.5C 329.72,661.805 327.053,660.805 324.5,659.5C 323.702,659.043 323.369,658.376 323.5,657.5 Z M 376.5,661.5 C 377.766,662.09 379.099,662.59 380.5,663C 376.618,666.658 372.618,666.991 368.5,664C 371.251,663.057 373.917,662.224 376.5,661.5 Z M 623.5,664.5 C 628.499,664.891 628.666,666.225 624,668.5C 620.948,667.421 620.782,666.088 623.5,664.5 Z M 282.5,674.5 C 284.337,674.639 284.67,675.306 283.5,676.5C 282.702,676.043 282.369,675.376 282.5,674.5 Z M 273.5,679.5 C 278.313,680.493 282.98,681.993 287.5,684C 301.711,691.272 316.044,698.272 330.5,705C 352.67,713.278 374.67,721.945 396.5,731C 423.611,736.14 450.945,738.473 478.5,738C 481.977,737.337 485.477,736.837 489,736.5C 494.688,738.381 500.521,739.881 506.5,741C 520.226,741.529 533.893,741.029 547.5,739.5C 553.973,739.955 560.307,741.122 566.5,743C 557.971,745.15 549.305,746.483 540.5,747C 482.468,747.913 425.135,741.913 368.5,729C 338.746,720.415 310.079,709.082 282.5,695C 278.258,692.39 274.258,689.557 270.5,686.5C 287.008,695.087 304.008,702.587 321.5,709C 322.833,709.667 324.167,709.667 325.5,709C 312.938,701.552 299.938,694.885 286.5,689C 281.744,686.301 277.411,683.134 273.5,679.5 Z M 303.5,680.5 C 309.367,679.737 310.533,681.403 307,685.5C 304.444,684.781 303.277,683.114 303.5,680.5 Z M 481.5,688.5 C 482.833,688.5 484.167,688.5 485.5,688.5C 486.463,692.796 486.629,697.129 486,701.5C 484.305,704.695 481.805,707.028 478.5,708.5C 476.652,706.267 474.985,703.934 473.5,701.5C 470.827,702.501 468.493,704.001 466.5,706C 465.365,706.749 464.365,706.583 463.5,705.5C 466.282,696.383 472.282,690.717 481.5,688.5 Z M 463.5,692.5 C 463.027,693.906 462.027,694.573 460.5,694.5C 460.973,693.094 461.973,692.427 463.5,692.5 Z M 617.5,693.5 C 635.874,695.148 654.208,697.315 672.5,700C 667.531,703.768 661.865,705.601 655.5,705.5C 638.873,703.078 622.206,702.411 605.5,703.5C 599.724,702.91 599.391,700.744 604.5,697C 608.809,695.27 613.142,694.103 617.5,693.5 Z M 500.5,695.5 C 502.527,695.338 504.527,695.505 506.5,696C 503.368,701.642 498.702,705.142 492.5,706.5C 492.338,704.473 492.505,702.473 493,700.5C 495.426,698.548 497.926,696.881 500.5,695.5 Z M 727.5,695.5 C 730.284,697.281 730.117,698.947 727,700.5C 725.198,698.727 725.365,697.06 727.5,695.5 Z M 689.5,698.5 C 690.434,699.568 690.768,700.901 690.5,702.5C 689.325,702.719 688.325,702.386 687.5,701.5C 688.193,700.482 688.859,699.482 689.5,698.5 Z M 767.5,698.5 C 771.081,699.26 774.748,699.76 778.5,700C 766.866,703.905 755.2,704.239 743.5,701C 751.637,700.055 759.637,699.222 767.5,698.5 Z M 338.5,702.5 C 340.527,702.338 342.527,702.505 344.5,703C 345.784,704.297 345.617,705.464 344,706.5C 342.601,705.773 341.101,705.273 339.5,705C 338.748,704.329 338.414,703.496 338.5,702.5 Z M 519.5,704.5 C 521.355,704.272 522.188,704.939 522,706.5C 519.697,709.233 516.863,710.733 513.5,711C 514.688,707.982 516.688,705.815 519.5,704.5 Z M 424.5,706.5 C 426.885,707.867 426.552,709.201 423.5,710.5C 423.167,710.167 422.833,709.833 422.5,709.5C 423.193,708.482 423.859,707.482 424.5,706.5 Z M 502.5,706.5 C 503.552,706.351 504.552,706.517 505.5,707C 504.154,711.7 501.154,714.034 496.5,714C 495.549,713.282 495.383,712.449 496,711.5C 497.965,709.45 500.132,707.783 502.5,706.5 Z M 526.5,711.5 C 528.646,711.696 528.812,712.696 527,714.5C 525.622,716.213 523.955,717.547 522,718.5C 520.77,717.725 520.437,716.725 521,715.5C 522.812,714.023 524.645,712.69 526.5,711.5 Z M 539.5,711.5 C 538.196,713.982 536.196,715.149 533.5,715C 535.063,713.053 537.063,711.886 539.5,711.5 Z M 366.5,713.5 C 384.592,714.289 402.259,718.122 419.5,725C 412.118,725.747 404.785,725.414 397.5,724C 386.831,721.388 376.498,717.888 366.5,713.5 Z M 548.5,712.5 C 549.873,712.343 551.207,712.51 552.5,713C 549.579,716.592 546.079,719.425 542,721.5C 540.385,720.344 540.385,719.011 542,717.5C 543.965,715.45 546.132,713.783 548.5,712.5 Z M 581.5,741.5 C 586.515,741.863 586.682,743.197 582,745.5C 578.937,744.325 578.77,742.991 581.5,741.5 Z"/></g>
<g><path style="opacity:0.895" fill="#fefffe" d="M 230.5,179.5 C 238.725,179.553 243.391,183.719 244.5,192C 244.561,193.711 243.894,195.044 242.5,196C 226.827,198.522 222.827,193.022 230.5,179.5 Z"/></g>
<g><path style="opacity:0.756" fill="#fefffe" d="M 257.5,182.5 C 259.857,182.337 262.19,182.503 264.5,183C 265.727,184.587 265.394,185.921 263.5,187C 260.268,188.466 256.935,189.633 253.5,190.5C 253.685,192.486 253.018,194.486 251.5,196.5C 249.744,194.809 249.244,192.809 250,190.5C 252.028,187.308 254.528,184.641 257.5,182.5 Z"/></g>
<g><path style="opacity:0.824" fill="#fefffe" d="M 171.5,196.5 C 179.534,196.302 187.534,196.635 195.5,197.5C 195.439,199.592 194.439,201.092 192.5,202C 186.131,205.048 179.965,204.882 174,201.5C 167.844,203.05 161.677,204.716 155.5,206.5C 154.833,206.333 154.167,206.167 153.5,206C 154.257,204.488 155.257,203.154 156.5,202C 161.34,199.386 166.34,197.553 171.5,196.5 Z"/></g>
<g><path style="opacity:0.609" fill="#fefffe" d="M 148.5,206.5 C 149.5,206.5 150.5,206.5 151.5,206.5C 152.244,209.95 150.91,211.616 147.5,211.5C 147.629,209.784 147.962,208.117 148.5,206.5 Z"/></g>
<g><path style="opacity:0.859" fill="#fefffe" d="M 129.5,212.5 C 134.883,211.605 139.549,212.938 143.5,216.5C 144.717,221.287 142.717,223.287 137.5,222.5C 132.549,223.03 129.215,221.03 127.5,216.5C 127.752,214.927 128.418,213.594 129.5,212.5 Z"/></g>
<g><path style="opacity:0.697" fill="#fefffe" d="M 116.5,213.5 C 117.5,213.5 118.5,213.5 119.5,213.5C 119.5,214.833 119.5,216.167 119.5,217.5C 112.436,218.897 111.436,217.563 116.5,213.5 Z"/></g>
<g><path style="opacity:0.872" fill="#fefefe" d="M 116.5,222.5 C 128.084,222.42 134.751,228.086 136.5,239.5C 134.143,239.663 131.81,239.497 129.5,239C 124.297,234.565 118.297,232.065 111.5,231.5C 111.372,227.415 113.039,224.415 116.5,222.5 Z"/></g>
<g><path style="opacity:0.867" fill="#fefefe" d="M 262.5,257.5 C 263.822,257.33 264.989,257.663 266,258.5C 266.704,260.278 267.204,262.112 267.5,264C 265.277,271.044 264.11,278.21 264,285.5C 264.667,284.833 265.333,284.167 266,283.5C 267.359,278.062 269.026,272.728 271,267.5C 271.965,265.74 273.132,265.406 274.5,266.5C 273.417,274.662 271.584,282.662 269,290.5C 267.562,294.775 264.729,297.441 260.5,298.5C 258.626,298.61 257.126,297.944 256,296.5C 252.168,282.492 254.334,269.492 262.5,257.5 Z"/></g>
<g><path style="opacity:0.617" fill="#fefffe" d="M 154.5,280.5 C 157.548,280.494 158.048,281.494 156,283.5C 154.961,282.756 154.461,281.756 154.5,280.5 Z"/></g>
<g><path style="opacity:0.838" fill="#fefffe" d="M 162.5,290.5 C 168.866,297.358 176.033,303.358 184,308.5C 184.667,309.167 184.667,309.833 184,310.5C 182.795,311.071 181.628,311.738 180.5,312.5C 182.5,314.833 184.5,317.167 186.5,319.5C 184.579,320.641 182.579,320.808 180.5,320C 175.396,317.227 170.563,314.06 166,310.5C 166.482,307.24 166.482,303.907 166,300.5C 164.925,297.106 163.758,293.772 162.5,290.5 Z"/></g>
<g><path style="opacity:0.805" fill="#fffeff" d="M 182.5,292.5 C 184.467,292.261 186.301,292.594 188,293.5C 188.497,296.146 188.664,298.813 188.5,301.5C 182.425,301.105 180.425,298.105 182.5,292.5 Z"/></g>
<g><path style="opacity:0.446" fill="#fefffe" d="M 245.5,308.5 C 246.868,310.418 247.868,312.585 248.5,315C 248.167,315.167 247.833,315.333 247.5,315.5C 245.988,314.009 244.988,312.176 244.5,310C 245.056,309.617 245.389,309.117 245.5,308.5 Z"/></g>
<g><path style="opacity:0.753" fill="#fefffe" d="M 156.5,318.5 C 168.992,319.253 179.992,323.586 189.5,331.5C 189.333,331.833 189.167,332.167 189,332.5C 186.931,331.736 184.764,331.236 182.5,331C 174.377,327.271 166.044,324.105 157.5,321.5C 156.873,320.583 156.539,319.583 156.5,318.5 Z"/></g>
<g><path style="opacity:0.528" fill="#fefffe" d="M 249.5,320.5 C 252.659,323.486 254.159,327.152 254,331.5C 251.038,328.452 249.538,324.785 249.5,320.5 Z"/></g>
<g><path style="opacity:0.859" fill="#fefffe" d="M 148.5,322.5 C 163.452,325.287 175.452,332.787 184.5,345C 175.17,343.747 166.17,341.081 157.5,337C 152.09,333.683 149.09,328.85 148.5,322.5 Z"/></g>
<g><path style="opacity:0.814" fill="#fefffe" d="M 135.5,331.5 C 146.96,332.756 155.96,338.422 162.5,348.5C 154.593,350.252 148.093,347.919 143,341.5C 140.723,337.92 138.223,334.586 135.5,331.5 Z"/></g>
<g><path style="opacity:0.869" fill="#fefffe" d="M 132.5,339.5 C 137.965,342.066 143.298,344.899 148.5,348C 154.79,353.996 155.123,360.329 149.5,367C 146.697,367.755 144.03,367.422 141.5,366C 134.458,359.549 129.125,352.383 125.5,344.5C 129.48,346.801 133.48,349.134 137.5,351.5C 138.583,350.635 138.749,349.635 138,348.5C 136.311,345.333 134.478,342.333 132.5,339.5 Z"/></g>
<g><path style="opacity:0.679" fill="#fefffe" d="M 165.5,356.5 C 169.713,358.046 172.047,361.046 172.5,365.5C 170.856,365.714 169.356,365.38 168,364.5C 166.659,361.978 165.826,359.311 165.5,356.5 Z"/></g>
<g><path style="opacity:0.614" fill="#fefffe" d="M 157.5,358.5 C 158.833,358.5 160.167,358.5 161.5,358.5C 161.114,362.738 159.448,363.404 156.5,360.5C 156.863,359.817 157.196,359.15 157.5,358.5 Z"/></g>
<g><path style="opacity:0.618" fill="#fefffe" d="M 225.5,359.5 C 226.966,360.347 227.8,361.68 228,363.5C 228.497,365.81 228.663,368.143 228.5,370.5C 227.5,370.5 226.5,370.5 225.5,370.5C 225.5,366.833 225.5,363.167 225.5,359.5 Z"/></g>
<g><path style="opacity:0.659" fill="#fefffe" d="M 269.5,359.5 C 270.8,361.223 271.467,363.39 271.5,366C 271.609,368.7 271.109,371.2 270,373.5C 268.912,371.712 268.412,369.712 268.5,367.5C 268.703,364.803 269.036,362.136 269.5,359.5 Z"/></g>
<g><path style="opacity:0.907" fill="#fefffe" d="M 243.5,361.5 C 245.39,361.297 246.89,361.963 248,363.5C 248.895,367.21 249.895,370.877 251,374.5C 253.267,373.065 255.267,373.398 257,375.5C 257.146,380.843 257.146,386.176 257,391.5C 261.56,398.334 260.727,404.667 254.5,410.5C 253.252,409.96 252.085,409.293 251,408.5C 247.599,403.423 244.599,398.089 242,392.5C 239.719,382.009 240.219,371.676 243.5,361.5 Z"/></g>
<g><path style="opacity:0.658" fill="#fefffe" d="M 276.5,361.5 C 277.997,363.29 278.664,365.456 278.5,368C 277.952,372.648 276.785,377.148 275,381.5C 274.125,380.127 273.625,378.627 273.5,377C 274.178,371.75 275.178,366.584 276.5,361.5 Z"/></g>
<g><path style="opacity:0.882" fill="#fefffe" d="M 180.5,365.5 C 185.099,375.36 190.266,385.026 196,394.5C 193.834,386.834 191.334,379.167 188.5,371.5C 188.833,371.167 189.167,370.833 189.5,370.5C 201.846,378.344 211.179,388.844 217.5,402C 212.172,404.821 211.172,408.821 214.5,414C 211.796,412.848 209.129,411.348 206.5,409.5C 204.348,411.069 202.181,412.736 200,414.5C 196.731,412.864 194.064,410.531 192,407.5C 184.997,394.329 181.163,380.329 180.5,365.5 Z"/></g>
<g><path style="opacity:0.653" fill="#fefffe" d="M 159.5,376.5 C 163.313,379.447 164.146,383.114 162,387.5C 158.315,384.589 157.482,380.923 159.5,376.5 Z"/></g>
<g><path style="opacity:0.78" fill="#fefffe" d="M 174.5,385.5 C 179.525,384.695 181.858,386.861 181.5,392C 181.546,393.728 181.046,395.228 180,396.5C 175.524,393.931 173.69,390.264 174.5,385.5 Z"/></g>
<g><path style="opacity:0.461" fill="#fefffe" d="M 282.5,401.5 C 284.86,403.59 284.86,405.923 282.5,408.5C 281.637,406.229 281.637,403.895 282.5,401.5 Z"/></g>
<g><path style="opacity:0.521" fill="#fefffe" d="M 287.5,419.5 C 289.026,420.492 289.693,421.992 289.5,424C 288.38,428.462 287.38,428.295 286.5,423.5C 286.623,422.075 286.957,420.742 287.5,419.5 Z"/></g>
<g><path style="opacity:0.63" fill="#fefffe" d="M 207.5,452.5 C 212.172,453.464 213.006,455.464 210,458.5C 207.966,457.056 207.132,455.056 207.5,452.5 Z"/></g>
<g><path style="opacity:0.502" fill="#fefffe" d="M 236.5,455.5 C 238.729,456.055 240.395,457.389 241.5,459.5C 238.213,460.568 236.546,459.235 236.5,455.5 Z"/></g>
<g><path style="opacity:0.783" fill="#fefffe" d="M 296.5,463.5 C 299.808,462.974 301.974,464.307 303,467.5C 304.817,472.528 304.817,477.528 303,482.5C 298.146,477.104 295.979,470.771 296.5,463.5 Z"/></g>
<g><path style="opacity:0.651" fill="#fefffe" d="M 312.5,503.5 C 313.117,503.611 313.617,503.944 314,504.5C 314.89,507.706 314.557,510.706 313,513.5C 309.911,510.382 309.744,507.048 312.5,503.5 Z"/></g>
<g><path style="opacity:0.769" fill="#fefffe" d="M 333.5,533.5 C 339.136,534.945 341.802,538.445 341.5,544C 339.322,544.165 337.489,543.332 336,541.5C 334.659,538.978 333.826,536.311 333.5,533.5 Z"/></g>
<g><path style="opacity:0.451" fill="#fefffe" d="M 347.5,552.5 C 348.117,552.611 348.617,552.944 349,553.5C 349.667,555.833 349.667,558.167 349,560.5C 347.625,558.063 347.125,555.397 347.5,552.5 Z"/></g>
<g><path style="opacity:0.821" fill="#fefefe" d="M 354.5,563.5 C 364.672,568.865 370.005,577.198 370.5,588.5C 360.897,582.974 355.564,574.641 354.5,563.5 Z"/></g>
<g><path style="opacity:0.402" fill="#fefffe" d="M 470.5,650.5 C 472.346,650.222 473.68,650.889 474.5,652.5C 472.167,653.941 470.834,653.275 470.5,650.5 Z"/></g>
</svg>
